<svg width="85" height="58" viewBox="0 0 85 58" fill="none" xmlns="http://www.w3.org/2000/svg">
<path d="M24.4457 27.2348C25.3666 26.8307 26.0878 26.2996 26.6095 25.6427L24.837 23.4889C24.5758 23.8096 24.2882 24.0845 23.9739 24.3135C23.6592 24.5429 23.3254 24.7145 22.9725 24.8294C22.6194 24.9437 22.2433 25.001 21.8443 25.001C21.2302 25.001 20.6779 24.8447 20.1869 24.5312C19.6955 24.2184 19.3082 23.8061 19.0245 23.2941C18.7402 22.7826 18.5984 22.1982 18.5984 21.5414C18.5984 20.8694 18.7367 20.2738 19.0128 19.7541C19.2892 19.2351 19.669 18.8261 20.1523 18.5284C20.6358 18.2305 21.1919 18.0815 21.8214 18.0815C22.2204 18.0815 22.6077 18.1504 22.984 18.2878C23.3598 18.4253 23.709 18.6127 24.0315 18.8492C24.3537 19.0863 24.6219 19.3497 24.837 19.6395L26.6327 17.4859C26.1262 16.7834 25.4202 16.2336 24.5147 15.8363C23.6091 15.4391 22.6117 15.2404 21.522 15.2404C20.3557 15.2404 19.3122 15.5155 18.3913 16.0655C17.4706 16.6152 16.7454 17.3678 16.216 18.3221C15.6864 19.2771 15.4217 20.3499 15.4217 21.5414C15.4217 22.7482 15.6864 23.8248 16.216 24.7718C16.7454 25.7194 17.4706 26.4675 18.3913 27.0173C19.3122 27.5672 20.3557 27.8421 21.522 27.8421C22.5501 27.8421 23.5248 27.6396 24.4457 27.2348Z" fill="#41B653"/>
<path d="M37.0687 23.3168C36.8 23.8439 36.4277 24.2562 35.9524 24.5543C35.4764 24.8522 34.9393 25.001 34.3409 25.001C33.7268 25.001 33.1818 24.8522 32.7062 24.5543C32.2305 24.2562 31.8546 23.8439 31.5785 23.3168C31.3023 22.7901 31.1717 22.1982 31.1869 21.5414C31.1717 20.8694 31.3023 20.2738 31.5785 19.7541C31.8546 19.2351 32.2305 18.8226 32.7062 18.5168C33.1818 18.2117 33.7268 18.0589 34.3409 18.0589C34.9393 18.0589 35.4764 18.2075 35.9524 18.5054C36.4277 18.8035 36.8 19.2158 37.0687 19.7427C37.3371 20.2698 37.4714 20.8694 37.4714 21.5414C37.4714 22.1982 37.3371 22.7901 37.0687 23.3168ZM39.9347 24.7949C40.4873 23.848 40.7634 22.7635 40.7634 21.5414C40.7634 20.3194 40.4873 19.2384 39.9347 18.2993C39.3822 17.3599 38.6186 16.6152 37.6444 16.0655C36.6694 15.5155 35.5683 15.2404 34.3409 15.2404C33.0977 15.2404 31.9889 15.5155 31.0145 16.0655C30.0398 16.6152 29.2724 17.3599 28.7122 18.2993C28.1521 19.2384 27.8722 20.3194 27.8722 21.5414C27.8722 22.7635 28.1521 23.848 28.7122 24.7949C29.2724 25.7422 30.0398 26.4866 31.0145 27.0287C31.9889 27.5712 33.0977 27.8421 34.3409 27.8421C35.5683 27.8421 36.6694 27.5712 37.6444 27.0287C38.6186 26.4866 39.3822 25.7422 39.9347 24.7949Z" fill="#41B653"/>
<path d="M24.0709 37.1616C24.5544 36.8637 25.1104 36.7148 25.7399 36.7148C26.1389 36.7148 26.5263 36.7835 26.9025 36.921C27.2784 37.0584 27.6276 37.2457 27.9498 37.4826C28.2721 37.7194 28.5405 37.9829 28.7556 38.2727L30.5512 36.119C30.0448 35.4167 29.3385 34.8668 28.4333 34.4694C27.5276 34.0725 26.5302 33.8736 25.4406 33.8736C24.2742 33.8736 23.2307 34.1484 22.3098 34.6984C21.389 35.2483 20.6639 36.0011 20.1346 36.9552C19.605 37.9102 19.3403 38.9831 19.3403 40.1745C19.3403 41.3815 19.605 42.4581 20.1346 43.4052C20.6639 44.3525 21.389 45.1007 22.3098 45.6506C23.2307 46.2006 24.2742 46.4754 25.4406 46.4754C26.4687 46.4754 27.4436 46.2728 28.3643 45.8682C29.2851 45.4638 30.0062 44.9327 30.5281 44.2759L28.7556 42.1222C28.4944 42.443 28.2068 42.7178 27.8922 42.9468C27.5775 43.1762 27.2438 43.3479 26.8911 43.4623C26.5377 43.5771 26.1619 43.6344 25.7631 43.6344C25.149 43.6344 24.5965 43.4781 24.1055 43.1646C23.6143 42.8518 23.2267 42.439 22.9431 41.9273C22.6588 41.4158 22.5172 40.8316 22.5172 40.1745C22.5172 39.5027 22.6553 38.9069 22.9314 38.3875C23.2078 37.8681 23.5876 37.4593 24.0709 37.1616Z" fill="#41B653"/>
<path d="M35.8882 30.1026H32.6194V46.2464H35.8882V30.1026Z" fill="#41B653"/>
<path d="M46.2708 41.389C46.2708 41.7249 46.2097 42.0384 46.0884 42.3284C45.9665 42.6188 45.7995 42.8709 45.5869 43.0845C45.3738 43.2985 45.1155 43.4623 44.8115 43.5771C44.5074 43.6915 44.1807 43.7488 43.8311 43.7488C43.3445 43.7488 42.9343 43.6423 42.6001 43.4283C42.2655 43.2142 42.0072 42.9049 41.8248 42.5003C41.6424 42.0957 41.5513 41.618 41.5513 41.068V34.1256H38.3138V41.5951C38.3138 42.6188 38.4847 43.4933 38.8268 44.2188C39.1687 44.9442 39.6551 45.5016 40.2859 45.8913C40.9165 46.2807 41.6728 46.4754 42.5545 46.4754C43.2384 46.4754 43.8768 46.3455 44.4694 46.086C45.0623 45.8265 45.5714 45.4673 45.9971 45.0089C46.129 44.8669 46.245 44.7178 46.3536 44.5657L46.3542 44.5773H46.3498V46.2465H49.5081V34.1256H46.2708V41.389Z" fill="#41B653"/>
<path d="M60.8548 42.0188C60.5945 42.5468 60.2376 42.9591 59.7839 43.255C59.3326 43.5536 58.7995 43.7018 58.1846 43.7018C57.5698 43.7018 57.0343 43.5536 56.5731 43.255C56.1121 42.9591 55.7526 42.5468 55.4923 42.0188C55.2294 41.4933 55.1006 40.8764 55.1006 40.1754C55.1006 39.4869 55.2294 38.8775 55.4923 38.342C55.7526 37.8064 56.1121 37.3943 56.5731 37.1034C57.0343 36.8147 57.5698 36.669 58.1846 36.669C58.7995 36.669 59.3351 36.8147 59.7963 37.1034C60.2575 37.3943 60.6144 37.8064 60.8674 38.342C61.1201 38.8775 61.2465 39.4869 61.2465 40.1754C61.2465 40.8764 61.1151 41.4933 60.8548 42.0188ZM61.73 34.6876C60.902 34.1445 59.9573 33.8729 58.8988 33.8729C58.393 33.8729 57.8996 33.9496 57.426 34.1026C56.95 34.2558 56.5109 34.4652 56.1121 34.7318C55.7601 34.9689 55.4599 35.2378 55.2146 35.534V35.5364L55.1006 35.6795V30.1024H51.9469V46.2014H55.0311L55.1078 44.8467C55.3633 45.133 55.6657 45.3896 56.0203 45.6168C56.4343 45.8831 56.8956 46.093 57.4009 46.246C57.9095 46.399 58.4301 46.4754 58.968 46.4754C60.012 46.4754 60.9441 46.2041 61.7649 45.6612C62.5854 45.1207 63.2325 44.3756 63.7085 43.428C64.1845 42.4803 64.4225 41.3971 64.4225 40.1754C64.4225 38.9517 64.1821 37.8681 63.6986 36.9208C63.2151 35.9732 62.558 35.2303 61.73 34.6876Z" fill="#41B653"/>
<path d="M51.5549 23.4201C51.294 23.9549 50.9333 24.3747 50.473 24.6801C50.0127 24.9859 49.4754 25.1385 48.8617 25.1385C48.2477 25.1385 47.7141 24.9859 47.2617 24.6801C46.8089 24.3747 46.456 23.9549 46.2028 23.4201C45.9496 22.8854 45.8229 22.2595 45.8229 21.5414C45.8229 20.8388 45.9496 20.2165 46.2028 19.674C46.456 19.1319 46.8089 18.7118 47.2617 18.4138C47.7141 18.1159 48.2477 17.9669 48.8617 17.9669C49.4754 17.9669 50.0127 18.1159 50.473 18.4138C50.9333 18.7118 51.294 19.1319 51.5549 19.674C51.8158 20.2165 51.9464 20.8388 51.9464 21.5414C51.9464 22.2595 51.8158 22.8854 51.5549 23.4201ZM51.9438 27.6131H55.1001V10.6578H51.8313V16.7754C51.6449 16.5818 51.4356 16.3978 51.1982 16.2255C50.7758 15.9201 50.3005 15.6797 49.7709 15.5039C49.2413 15.3285 48.6926 15.2404 48.125 15.2404C47.0506 15.2404 46.0953 15.5155 45.2589 16.0655C44.4223 16.6152 43.7626 17.3638 43.2793 18.3107C42.7958 19.258 42.5541 20.3348 42.5541 21.5414C42.5541 22.7784 42.7958 23.8669 43.2793 24.8061C43.7626 25.7455 44.4263 26.4866 45.2704 27.0287C46.1143 27.5711 47.0661 27.8421 48.125 27.8421C48.6926 27.8421 49.2336 27.7621 49.748 27.6014C50.2619 27.4412 50.7222 27.2199 51.1292 26.9371C51.4521 26.7125 51.7223 26.4656 51.9438 26.1975V27.6131Z" fill="#41B653"/>
<path d="M60.6691 20.2202C60.8352 19.5137 61.1662 18.9754 61.6541 18.6176C62.1917 18.2242 62.821 18.0244 63.5241 18.0244C64.2538 18.0244 64.8711 18.2409 65.3593 18.6676C65.8112 19.0632 66.068 19.5723 66.1419 20.2202H60.6691ZM68.8015 18.1438C68.2913 17.249 67.5725 16.5335 66.665 16.0174C65.7581 15.5019 64.7013 15.2404 63.5241 15.2404C62.2673 15.2404 61.1585 15.514 60.2277 16.0534C59.296 16.5939 58.5571 17.3577 58.0315 18.3241C57.507 19.2878 57.2408 20.4022 57.2408 21.6358C57.2408 22.8551 57.5112 23.9466 58.0452 24.8796C58.5796 25.8149 59.3271 26.5505 60.2668 27.0664C61.204 27.581 62.292 27.8421 63.5005 27.8421C64.4682 27.8421 65.3491 27.6623 66.1189 27.3077C66.8883 26.9532 67.5458 26.4581 68.0729 25.8366C68.5988 25.2164 68.9806 24.5176 69.2076 23.7598L69.2711 23.5479H65.8608L65.8163 23.6432C65.6246 24.054 65.3293 24.3923 64.9386 24.6489C64.5493 24.9047 64.0575 25.0348 63.4767 25.0348C62.7007 25.0348 62.032 24.787 61.4891 24.2983C60.9849 23.8447 60.6858 23.2191 60.5987 22.4377H69.5108L69.5223 22.2852C69.538 22.0792 69.5501 21.8803 69.5583 21.6896C69.5662 21.4986 69.5702 21.3155 69.5702 21.1401C69.5702 20.0461 69.3114 19.0382 68.8015 18.1438Z" fill="#41B653"/>
<path d="M6.68547 28.7147L6.26595 29.0023L6.68547 29.2853C7.22168 29.6568 7.71134 30.0743 8.14476 30.5244C8.3779 30.7705 8.59715 31.021 8.81155 31.2995C10.7929 33.8885 11.0914 37.0488 11.0914 38.6962V51.1046C11.0914 53.1138 12.8164 54.7471 14.9377 54.7471H18.0102V58H14.9377C10.8862 58 7.59466 54.905 7.59466 51.1046L7.59003 38.0604C7.49673 36.4828 7.05846 34.2738 5.51998 32.6776C4.27045 31.383 2.41502 30.696 0 30.6311V27.369C2.41017 27.3088 4.26582 26.6219 5.51998 25.3224C7.05846 23.7262 7.49673 21.5177 7.59466 19.9212V6.89566C7.59466 3.09526 10.8862 1.52588e-05 14.9377 1.52588e-05H18.0102V3.25772H14.9377C12.8164 3.25772 11.0914 4.89107 11.0914 6.89566V19.3041C11.0914 20.9561 10.7929 24.1115 8.81155 26.7007C8.59715 26.9793 8.3779 27.2344 8.14476 27.4757C7.71134 27.9305 7.22168 28.3435 6.68547 28.7147Z" fill="#41B653"/>
<path d="M84.9919 27.369V30.631C82.5815 30.696 80.7214 31.383 79.4719 32.6776C77.9334 34.2738 77.4952 36.4828 77.3972 38.079V51.1046C77.3972 54.905 74.1057 58 70.0542 58H66.9817V54.7471H70.0542C72.1755 54.7471 73.9005 53.1138 73.9005 51.1046V38.6962C73.9005 37.0488 74.199 33.8885 76.1803 31.2995C76.3947 31.0209 76.614 30.7704 76.8471 30.5243C77.2805 30.0743 77.7702 29.6567 78.3064 29.2853L78.7259 29.0023L78.3064 28.7147C77.7702 28.3435 77.2805 27.9305 76.8471 27.4756C76.614 27.2344 76.3947 26.9793 76.1803 26.7007C74.199 24.1115 73.9005 20.9561 73.9005 19.3041V6.89564C73.9005 4.89105 72.1755 3.2577 70.0542 3.2577H66.9817V0H70.0542C74.1057 0 77.3972 3.09524 77.3972 6.89564V19.9444C77.4952 21.5176 77.9334 23.7262 79.4719 25.3224C80.7214 26.6173 82.5769 27.3088 84.9919 27.369Z" fill="#41B653"/>
</svg>

